<?xml version="1.0" ?><!DOCTYPE svg  PUBLIC '-//W3C//DTD SVG 1.1//EN'  'http://www.w3.org/Graphics/SVG/1.1/DTD/svg11.dtd'><svg enable-background="new 0 0 64 64" height="64px" id="Layer_1" version="1.1" viewBox="0 0 64 64" width="64px" xml:space="preserve" xmlns="http://www.w3.org/2000/svg" xmlns:xlink="http://www.w3.org/1999/xlink"><g id="Santa_Claus_1_"><g><g><path d="M44.221,46.88c0.113,0.244,0.193,1.104,0.232,2.058c0.327-0.024,0.664-0.028,0.999-0.038     c-0.035-0.902-0.12-1.999-0.323-2.439c-0.05-0.107-0.105-0.333-0.179-0.611c-0.122-0.458-0.274-1.01-0.474-1.514H43.38     c0.259,0.498,0.462,1.236,0.604,1.77C44.078,46.461,44.146,46.719,44.221,46.88z" fill="#37474F"/><path d="M40.427,49.611c0.325-0.082,0.653-0.159,0.977-0.228l-0.626-1.95L38,46H26l-2.925,1.434l-0.69,2.149     c0.337,0.043,0.676,0.078,1.014,0.115l0.501-1.562L26,47h12l1.953,1.137L40.427,49.611z" fill="#37474F"/><path d="M19.403,48.872c0.04-0.923,0.119-1.758,0.228-1.992c0.076-0.161,0.145-0.419,0.238-0.775     c0.142-0.533,0.345-1.271,0.604-1.77h-1.098c-0.199,0.504-0.352,1.056-0.473,1.514c-0.074,0.278-0.129,0.504-0.179,0.611     c-0.195,0.422-0.28,1.447-0.318,2.327C18.745,48.784,19.078,48.812,19.403,48.872z" fill="#37474F"/></g></g><g><g><path d="M51.638,57.285c-0.084-0.236-0.252-0.412-0.473-0.503c0.001-0.776-0.204-2.257-2.429-2.398     c-1.77-0.113-2.015-0.506-2.146-0.717c-0.033-0.054-0.065-0.103-0.099-0.146c0-0.027,0.002-0.056,0.003-0.084     c0.007-0.19,0.024-0.697-0.44-0.976c-0.001-0.299,0.014-0.601,0.033-0.882c-0.151,0.052-0.315,0.087-0.504,0.087     c-0.186,0-0.348-0.035-0.498-0.085c-0.026,0.396-0.042,0.83-0.022,1.245c0.01,0.228,0.208,0.381,0.431,0.428     c0.006,0.025,0.004,0.1,0.002,0.148c-0.007,0.191-0.017,0.481,0.246,0.794c0.314,0.502,0.825,1.05,2.932,1.185     c1.551,0.099,1.515,0.948,1.486,1.632c-0.007,0.144-0.008,0.26,0.002,0.337c0.019,0.152,0.105,0.287,0.236,0.367     c0.016,0.009,0.031,0.018,0.047,0.024c-0.36,0.093-1.025,0.201-1.86,0.201c-0.618,0-1.207-0.06-1.75-0.178     c-1.518-0.332-1.85-0.768-1.883-0.815c-0.094-0.138-0.299-0.215-0.469-0.215c-0.009,0-0.019,0-0.027,0.001     c-0.221,0.011-0.408,0.166-0.461,0.382l-0.054,0.225l-2.256-0.303c-0.037-0.141-0.063-0.274-0.077-0.359     c0.042-0.008,0.084-0.021,0.125-0.04c0.165-0.077,0.275-0.239,0.286-0.422c0.055-0.903,0.373-1.37,0.373-1.37     c0.146-0.199,0.125-0.476-0.05-0.649l-0.485-0.484l0.251-0.418c0.184-0.306,0.177-0.744-0.016-1.045l-0.203-0.315     c-0.216,0.141-0.48,0.23-0.806,0.23c-0.088,0-0.167-0.013-0.247-0.024l0.414,0.64l-0.296,0.493     c-0.201,0.339-0.144,0.805,0.135,1.086l0.282,0.281c-0.113,0.251-0.241,0.621-0.311,1.111c-0.138,0.092-0.246,0.22-0.319,0.378     c-0.261,0.566,0.035,1.385,0.097,1.543c0.066,0.17,0.219,0.29,0.399,0.313l3.017,0.405c0.235,0.037,0.444-0.099,0.529-0.306     c0.394,0.232,0.977,0.467,1.838,0.654c0.613,0.134,1.273,0.201,1.963,0.201c1.059,0,2.386-0.183,2.763-0.521     C51.65,58.148,51.772,57.67,51.638,57.285z" fill="#37474F"/></g></g><g><g><path d="M39.777,52.763l-0.281-3.527l6.969-0.76l0.915,3.518L39.777,52.763z M40.57,50.124l0.123,1.541     l5.425-0.549l-0.403-1.553L40.57,50.124z" fill="#37474F"/></g></g><g><g><path d="M22.767,55.754c-0.069-0.49-0.197-0.86-0.31-1.111l0.283-0.282c0.277-0.28,0.334-0.746,0.132-1.086     l-0.295-0.481l0.349-0.543c-0.003,0-0.006,0.001-0.009,0.001c-0.406,0-0.723-0.137-0.958-0.347l-0.224,0.349     c-0.192,0.3-0.198,0.738-0.016,1.043l0.251,0.419l-0.484,0.484c-0.172,0.171-0.192,0.445-0.055,0.645     c0.004,0.005,0.322,0.472,0.377,1.375c0.012,0.178,0.134,0.324,0.293,0.404c0.029,0.015,0.061,0.026,0.094,0.034     c0,0.098-0.02,0.238-0.055,0.383l-2.254,0.303l-0.053-0.225c-0.05-0.204-0.279-0.36-0.487-0.385     c-0.187-0.021-0.367,0.063-0.472,0.218c-0.014,0.02-0.336,0.477-1.882,0.814c-0.543,0.118-1.132,0.178-1.75,0.178     c-0.823,0-1.482-0.105-1.837-0.213c0.008-0.004,0.016-0.009,0.023-0.013c0.131-0.08,0.218-0.215,0.236-0.367     c0.01-0.077,0.008-0.193,0.002-0.337c-0.029-0.684-0.064-1.533,1.486-1.632c2.106-0.135,2.617-0.683,2.977-1.255     c0.217-0.242,0.207-0.532,0.201-0.724c-0.002-0.049-0.002-0.122,0.037-0.109c0.223-0.047,0.386-0.239,0.396-0.467     c0.016-0.356,0.007-0.729-0.013-1.079c-0.151,0.051-0.315,0.086-0.503,0.086c-0.186,0-0.348-0.035-0.498-0.085     c0.014,0.231,0.022,0.475,0.021,0.713c-0.465,0.278-0.447,0.785-0.441,0.976c0.002,0.028,0.004,0.057,0.004,0.084     c-0.033,0.043-0.064,0.092-0.099,0.146c-0.132,0.211-0.376,0.604-2.146,0.717c-2.226,0.142-2.431,1.622-2.43,2.398     c-0.221,0.091-0.389,0.267-0.473,0.503c-0.135,0.385-0.013,0.863,0.291,1.138c0.377,0.338,1.705,0.521,2.763,0.521     c0.689,0,1.351-0.067,1.963-0.201c0.87-0.189,1.45-0.429,1.837-0.657c0.084,0.209,0.3,0.35,0.53,0.309l3.017-0.405     c0.18-0.023,0.333-0.144,0.399-0.313c0.062-0.158,0.358-0.977,0.097-1.543C23.013,55.974,22.904,55.846,22.767,55.754z" fill="#37474F"/></g></g><g><g><path d="M24.049,52.763l-7.603-0.77l0.915-3.518l6.969,0.76L24.049,52.763z M17.708,51.116l5.425,0.549     l0.123-1.541l-5.145-0.561L17.708,51.116z" fill="#37474F"/></g></g><g><g><path d="M45.236,29.305c0.235,0.223,0.444,0.467,0.603,0.745l0.413-0.118l3.257-1.533     c0.5-0.234,0.551-0.699,0.113-1.037l-4.737-3.657l0.095,1.131c0.001,0.018,0.204,3.312,0.204,3.312l0.979-0.375     c0,0-0.066-1.333-0.104-1.898l2.45,1.893L45.236,29.305z" fill="#37474F"/><polygon fill="#37474F" points="44.645,38.299 45.788,41.375 46.854,41.375 45.707,38.287    "/><path d="M53.859,27.424c-0.711-2.564-7.563-6.585-8.785-7.285l-0.751-1.188l-1.005,0.333l-2.572-0.533     c0.155,0.34,0.245,0.705,0.279,1.08l2.352,0.488l0.519-0.173l0.466,0.738l0.109,0.062c2.164,1.228,7.895,4.832,8.426,6.746     c0.413,1.489-2.766,3.486-5.476,4.724c0.148,0.3,0.258,0.618,0.322,0.95C50.029,32.332,54.557,29.939,53.859,27.424z" fill="#37474F"/></g><g><path d="M17.958,25.873c-0.038,0.565-0.104,1.898-0.104,1.898l0.979,0.375c0,0,0.203-3.294,0.204-3.312     l0.095-1.131l-4.738,3.657c-0.437,0.338-0.386,0.803,0.113,1.037l3.258,1.533l0.473,0.136c0.168-0.271,0.376-0.514,0.621-0.726     l-3.35-1.576L17.958,25.873z" fill="#37474F"/><path d="M16.646,32.438c-2.722-1.235-5.941-3.248-5.526-4.747c0.531-1.914,6.262-5.519,8.426-6.746l0.109-0.062     l0.466-0.738l0.519,0.173l2.575-0.535c0.04-0.383,0.149-0.746,0.312-1.087l-2.828,0.587l-1.005-0.333l-0.751,1.188     c-1.223,0.7-8.074,4.721-8.785,7.285c-0.719,2.596,4.133,5.065,6.336,6.04C16.496,33.116,16.553,32.771,16.646,32.438z" fill="#37474F"/><polygon fill="#37474F" points="18.309,38.287 17.184,41.313 18.251,41.313 19.371,38.299    "/></g></g><g><g><path d="M29,44H17.5c-0.275,0-0.5-0.225-0.5-0.5v-1c0-0.275,0.225-0.5,0.5-0.5H29v-1H17.5     c-0.827,0-1.5,0.673-1.5,1.5v1c0,0.827,0.673,1.5,1.5,1.5H29V44z" fill="#37474F"/></g></g><g><g><path d="M35.417,35h3.806c-0.226-0.277-0.341-0.638-0.341-1h-3.465V35z" fill="#37474F"/><path d="M28.625,34h-3.47c0.009,0.358-0.095,0.717-0.308,1h3.777V34z" fill="#37474F"/><path d="M28.625,38h-9.534l-0.421-2.808c-0.162,0.06-0.34,0.1-0.545,0.1c-0.172,0-0.322-0.03-0.463-0.073     l0.439,2.93L18.229,39h10.396V38z" fill="#37474F"/><path d="M46.292,35.25c-0.341,0-0.613-0.102-0.833-0.256c-0.034,0.019-0.067,0.038-0.104,0.054L44.91,38h-9.618v1     h10.479l0.128-0.852l0.437-2.902C46.32,35.246,46.308,35.25,46.292,35.25z" fill="#37474F"/></g></g><g><g><path d="M44.766,34.261c-0.258,0.17-0.53,0.305-0.804,0.417c-0.466,0.19-0.947,0.388-1.144,0.867     c-0.112,0.275-0.154,0.541-0.188,0.755c-0.018,0.116-0.045,0.291-0.053,0.316c-0.07,0.04-0.209,0.087-0.37,0.087     c-0.346,0-0.641-0.206-0.876-0.612c-0.344-0.591-0.784-0.837-1.106-1.016c-0.17-0.095-0.305-0.169-0.386-0.268     c-0.451-0.549-0.524-0.679-0.137-1.496l0.105-0.238c0.081-0.186,0.295-0.679,0.42-0.734c0.464-0.029,1.951-0.509,2.775-0.783     c-0.167-0.296-0.227-0.649-0.189-0.991c-1.15,0.386-2.376,0.76-2.65,0.776c-0.714,0.046-1.05,0.821-1.272,1.335l-0.093,0.208     c-0.526,1.112-0.469,1.662,0.27,2.559c0.201,0.245,0.451,0.384,0.671,0.507c0.28,0.155,0.522,0.29,0.728,0.644     c0.562,0.966,1.332,1.11,1.741,1.11c0.308,0,0.623-0.079,0.866-0.218c0.423-0.241,0.49-0.68,0.545-1.032     c0.028-0.179,0.057-0.363,0.125-0.53c0.037-0.091,0.36-0.223,0.597-0.319c0.326-0.134,0.713-0.295,1.087-0.562     C45.103,34.873,44.879,34.59,44.766,34.261z" fill="#37474F"/></g></g><g><g><path d="M44.65,21.828c-0.358-0.818-0.252-0.902-0.354-1.926L44.65,21.828z" fill="#FF8A80"/></g><g><path d="M44.65,22.328c-0.192,0-0.376-0.111-0.458-0.299c-0.287-0.656-0.313-0.918-0.346-1.449     c-0.01-0.165-0.021-0.364-0.048-0.628c-0.028-0.274,0.173-0.521,0.447-0.548c0.271-0.025,0.52,0.174,0.547,0.448     c0.028,0.28,0.041,0.491,0.052,0.667c0.027,0.452,0.036,0.588,0.264,1.107c0.11,0.254-0.005,0.549-0.258,0.659     C44.786,22.314,44.718,22.328,44.65,22.328z" fill="#37474F"/></g></g><g><g><path d="M45.905,35.627L45.905,35.627c-0.226,0-0.437-0.074-0.593-0.211c-0.354-0.306-0.954-0.935-1.789-2.188     c-0.845-1.266-1.21-2.082-1.368-2.543c-0.131-0.385,0.038-0.843,0.394-1.066l1.469-0.921c0.325-0.206,0.817-0.177,1.11,0.065     c0.406,0.334,1.178,1.031,1.78,1.954c0.63,0.967,1.218,2.106,1.441,2.552c0.191,0.382,0.064,0.868-0.29,1.107l-1.615,1.09     C46.294,35.57,46.102,35.627,45.905,35.627z M43.128,30.435c0.132,0.361,0.457,1.084,1.228,2.239     c0.766,1.149,1.294,1.702,1.564,1.945l1.482-1.005c-0.246-0.486-0.773-1.493-1.332-2.351c-0.529-0.811-1.216-1.431-1.577-1.729     L43.128,30.435z" fill="#37474F"/></g></g><g><g><path d="M25.2,32.885l-0.091-0.205c-0.223-0.516-0.559-1.293-1.273-1.339c-0.264-0.017-1.407-0.362-2.518-0.731     c0.02,0.342-0.063,0.688-0.244,0.972c0.836,0.278,2.244,0.729,2.685,0.755c0.138,0.059,0.353,0.553,0.433,0.739l0.105,0.236     c0.387,0.817,0.314,0.947-0.137,1.496c-0.082,0.099-0.216,0.173-0.386,0.268c-0.321,0.179-0.763,0.425-1.106,1.016     c-0.236,0.406-0.531,0.612-0.877,0.612c-0.16,0-0.299-0.047-0.348-0.067c-0.029-0.045-0.057-0.22-0.074-0.336     c-0.033-0.214-0.074-0.479-0.188-0.756c-0.196-0.479-0.678-0.676-1.145-0.866c-0.234-0.096-0.466-0.205-0.688-0.332     c-0.162,0.31-0.435,0.556-0.813,0.667c0.386,0.282,0.786,0.453,1.124,0.591c0.236,0.097,0.56,0.229,0.597,0.318     c0.068,0.168,0.098,0.353,0.125,0.531c0.055,0.353,0.123,0.791,0.545,1.032c0.242,0.139,0.559,0.218,0.865,0.218     c0.41,0,1.18-0.145,1.742-1.11c0.205-0.354,0.447-0.488,0.728-0.644c0.22-0.123,0.47-0.262,0.671-0.507     C25.67,34.546,25.728,33.996,25.2,32.885z" fill="#37474F"/></g></g><g><g><path d="M19.35,21.828c0.358-0.818,0.252-0.902,0.354-1.926L19.35,21.828z" fill="#FF8A80"/></g><g><path d="M19.35,22.328c-0.067,0-0.135-0.014-0.201-0.042c-0.252-0.11-0.367-0.405-0.257-0.659     c0.228-0.52,0.235-0.655,0.263-1.107c0.012-0.176,0.024-0.387,0.053-0.667c0.027-0.274,0.27-0.472,0.547-0.448     c0.275,0.027,0.475,0.273,0.447,0.548c-0.025,0.264-0.038,0.463-0.048,0.628c-0.032,0.531-0.06,0.793-0.346,1.449     C19.726,22.217,19.542,22.328,19.35,22.328z" fill="#37474F"/></g></g><g><g><path d="M18.096,35.627c-0.197,0-0.389-0.057-0.542-0.161l-1.612-1.089c-0.355-0.239-0.482-0.726-0.291-1.107     c0.224-0.445,0.812-1.585,1.441-2.551c0.604-0.924,1.374-1.621,1.78-1.955c0.294-0.244,0.786-0.271,1.111-0.064l1.467,0.919     c0.356,0.225,0.524,0.683,0.394,1.067c-0.157,0.461-0.522,1.277-1.367,2.543c-0.834,1.253-1.435,1.882-1.791,2.189     C18.531,35.553,18.32,35.627,18.096,35.627z M16.598,33.614l1.484,1.002c0.273-0.245,0.801-0.799,1.563-1.942     c0.77-1.154,1.095-1.876,1.227-2.238l-1.42-0.89c-0.307,0.287-0.992,0.907-1.521,1.719     C17.371,32.121,16.844,33.129,16.598,33.614z" fill="#37474F"/></g></g><g><g><g><path d="M34,33.501v-4.647c-0.322,0.027-0.66,0.043-1,0.057v4.591H34z" fill="#37474F"/><path d="M46.5,41H34v-1.708h-1V42h13.5c0.275,0,0.5,0.225,0.5,0.5v1c0,0.275-0.225,0.5-0.5,0.5H31v-4.708h-1V45      h16.5c0.827,0,1.5-0.673,1.5-1.5v-1C48,41.673,47.327,41,46.5,41z" fill="#37474F"/><path d="M31,33.501v-4.585c-0.338-0.012-0.68-0.021-1-0.046v4.631H31z" fill="#37474F"/></g></g><g><path d="M39.525,15.613l-0.131-0.245c-0.238-0.471-1.293-2.268-1.737-3.022c-0.286,0.154-0.604,0.272-0.962,0.337     c0.349,0.591,1.564,2.656,1.807,3.136l0.145,0.271c1.913,3.527,2.332,6.24,1.246,8.064c-1.103,1.853-3.785,2.792-7.975,2.792     c-4.137,0-6.789-0.919-7.885-2.733c-1.604-2.656,0.519-6.686,1.216-8.01c0.103-0.195,0.18-0.342,0.22-0.432     c0.218-0.485,1.326-2.339,1.816-3.15c-0.369-0.044-0.716-0.119-1.014-0.255c-0.466,0.773-1.479,2.473-1.715,2.996     c-0.035,0.079-0.104,0.206-0.192,0.375c-0.763,1.447-3.082,5.853-1.187,8.993c1.287,2.134,4.229,3.216,8.74,3.216     c4.566,0,7.539-1.104,8.834-3.28C42.031,22.518,41.618,19.471,39.525,15.613z" fill="#37474F"/></g></g><g><g><path d="M31.998,21c-2.291,0-2.969-1.133-3.037-1.262c-0.132-0.244-0.041-0.547,0.202-0.678     c0.241-0.132,0.546-0.039,0.677,0.203C29.854,19.283,30.311,20,31.998,20c1.688,0,2.149-0.719,2.169-0.75     c0.142-0.23,0.445-0.312,0.68-0.176c0.234,0.135,0.321,0.427,0.192,0.665C34.969,19.868,34.288,21,31.998,21z" fill="#37474F"/></g></g><g><g><path d="M28.539,16.758c-0.144,0.027-0.295,0.053-0.42,0.08c-0.513,0.107-0.813,0.266-1.05-0.09     c-0.197-0.371,0.361-2.263,1.217-4.206h-1.092c-0.678,1.587-1.515,3.925-0.959,4.759c0.29,0.434,0.682,0.645,1.198,0.645     c0.284,0,0.58-0.063,0.895-0.13c0.068-0.015,0.146-0.027,0.219-0.042c-0.041-0.17-0.066-0.344-0.066-0.523     C28.48,17.083,28.504,16.919,28.539,16.758z" fill="#37474F"/><path d="M35.718,12.542c0.856,1.943,1.415,3.835,1.22,4.203c-0.201,0.302-0.544,0.21-1.137,0.089     c-0.101-0.021-0.225-0.041-0.338-0.062c0.034,0.156,0.057,0.315,0.057,0.478c0,0.185-0.025,0.363-0.067,0.537     c0.048,0.01,0.102,0.018,0.148,0.027c0.331,0.066,0.644,0.131,0.94,0.131c0.537,0,0.938-0.211,1.229-0.645     c0.555-0.834-0.282-3.172-0.96-4.759H35.718z" fill="#37474F"/></g></g><g><g><path d="M32,19.005c-1.412,0-2.52-0.771-2.52-1.755c0-0.417,0.21-0.82,0.59-1.135     c0.213-0.178,0.527-0.146,0.705,0.066c0.176,0.212,0.146,0.527-0.066,0.703c-0.086,0.07-0.229,0.212-0.229,0.365     c0,0.35,0.664,0.755,1.52,0.755s1.52-0.405,1.52-0.755c0-0.154-0.143-0.295-0.228-0.364c-0.213-0.176-0.243-0.491-0.067-0.704     c0.176-0.214,0.49-0.242,0.704-0.067c0.381,0.314,0.591,0.718,0.591,1.136C34.52,18.234,33.413,19.005,32,19.005z" fill="#37474F"/></g></g><g><g><g><path d="M35.096,15.33c-0.187,0-0.366-0.105-0.451-0.285c-0.047-0.098-0.178-0.168-0.335-0.178      c-0.073-0.002-0.32-0.004-0.46,0.209c-0.153,0.232-0.464,0.295-0.692,0.146c-0.231-0.151-0.296-0.461-0.146-0.692      c0.291-0.443,0.799-0.702,1.365-0.66c0.52,0.035,0.968,0.321,1.17,0.746c0.119,0.25,0.013,0.549-0.236,0.667      C35.241,15.314,35.168,15.33,35.096,15.33z" fill="#37474F"/></g></g><g><g><path d="M28.956,15.33c-0.071,0-0.146-0.016-0.214-0.048c-0.25-0.118-0.355-0.417-0.237-0.667      c0.202-0.425,0.651-0.711,1.171-0.746c0.545-0.039,1.074,0.216,1.364,0.66c0.151,0.231,0.086,0.541-0.146,0.692      s-0.541,0.087-0.691-0.146c-0.141-0.213-0.389-0.211-0.461-0.209c-0.156,0.01-0.287,0.08-0.334,0.178      C29.322,15.225,29.143,15.33,28.956,15.33z" fill="#37474F"/></g></g></g><g><g><path d="M38.005,7.807c0.126,1.639,1.413,3.537,2.737,4.611c0.139-0.308,0.376-0.564,0.717-0.703     c-1.097-0.854-2.346-2.536-2.458-3.986c-0.152-1.98-2.446-2.09-3.965-2.161c-0.464-0.022-0.943-0.044-1.144-0.116     c-0.306-0.111-0.622-0.387-0.929-0.653c-0.456-0.397-0.927-0.809-1.511-0.809c-0.173,0-0.342,0.037-0.504,0.11l-0.117,0.074     c-2.634,2.229-3.388,4.284-3.572,4.945c0.374-0.144,0.78-0.208,1.145-0.233c0.334-0.815,1.15-2.311,3.049-3.896     c0.209,0,0.552,0.299,0.854,0.563c0.358,0.312,0.764,0.665,1.246,0.839c0.342,0.124,0.825,0.146,1.437,0.176     C36.593,6.643,37.926,6.787,38.005,7.807z" fill="#37474F"/><path d="M40.758,13.824c-0.162-0.336-0.202-0.73-0.12-1.098c-1.223-0.244-2.524-0.728-2.74-1.637     c-0.156-0.658-0.291-1.088-0.464-1.348c0.176,1.659,0.116,2.369,0.063,2.638C38.277,13.221,39.64,13.628,40.758,13.824z" fill="#37474F"/><path d="M37.314,9.586c-0.095-0.089-0.203-0.138-0.332-0.148C37.122,9.483,37.239,9.532,37.314,9.586z" fill="#37474F"/></g><g><path d="M37.724,13H26.632l-0.294,0.001c-0.608,0-0.682-0.672-0.706-2.205c-0.038-2.356,2.483-2.415,3.313-2.434     l0.198-0.005c0.079-0.004,0.227-0.006,0.43-0.006c8.218,0,8.323,1.006,8.358,1.338c0.124,1.176,0.215,2.568-0.059,2.998     L37.724,13z M26.693,12h10.344c0.024-0.317,0.029-0.918-0.085-2.053c-0.73-0.344-4.394-0.596-7.38-0.596     c-0.183,0-0.316,0.002-0.389,0.004l-0.217,0.007c-1.455,0.033-2.354,0.282-2.335,1.418C26.642,11.408,26.668,11.791,26.693,12z" fill="#37474F"/></g></g><g><g><path d="M42,15c-1.103,0-2-0.896-2-2s0.897-2,2-2s1.999,0.896,1.999,2S43.103,15,42,15z M42,12     c-0.552,0-1,0.449-1,1s0.448,1,1,1c0.551,0,0.999-0.449,0.999-1S42.551,12,42,12z" fill="#37474F"/></g></g><g><g><g><path d="M34.5,40h-5c-0.827,0-1.5-0.673-1.5-1.5v-4c0-0.827,0.673-1.5,1.5-1.5h5c0.827,0,1.5,0.673,1.5,1.5v4      C36,39.327,35.327,40,34.5,40z M29.5,34c-0.275,0-0.5,0.225-0.5,0.5v4c0,0.275,0.225,0.5,0.5,0.5h5c0.275,0,0.5-0.225,0.5-0.5      v-4c0-0.275-0.225-0.5-0.5-0.5H29.5z" fill="#37474F"/></g></g></g><g><g><path d="M34,38h-4v-3h4V38z M31,37h2v-1h-2V37z" fill="#37474F"/></g></g><path d="M37.366,9.909c0.049-0.06,0.08-0.118,0.067-0.168C37.331,9.35,37.513,8.817,37.651,8.4   c0.087-0.263-0.055-0.545-0.317-0.633s-0.545,0.055-0.632,0.316C36.665,8.196,36.4,9.031,36.41,9.773L37.366,9.909z" fill="#37474F"/></g></svg>