<?xml version="1.0" ?><!DOCTYPE svg  PUBLIC '-//W3C//DTD SVG 1.1//EN'  'http://www.w3.org/Graphics/SVG/1.1/DTD/svg11.dtd'><svg enable-background="new 0 0 64 64" height="64px" id="Layer_1" version="1.1" viewBox="0 0 64 64" width="64px" xml:space="preserve" xmlns="http://www.w3.org/2000/svg" xmlns:xlink="http://www.w3.org/1999/xlink"><g id="message_1_"><g id="mobile_shop_1_"><g><path d="M50.705,42.041C49.436,43.828,47.354,45,45,45s-4.436-1.172-5.705-2.959h-1.188     C39.499,44.405,42.063,46,45,46s5.501-1.595,6.893-3.959H50.705z" fill="#37474F"/></g><g><g><path d="M45,53c0.551,0,1,0.448,1,1s-0.449,1-1,1s-1-0.448-1-1S44.449,53,45,53L45,53z M45,52      c-1.104,0-2,0.895-2,2s0.896,2,2,2c1.105,0,2-0.895,2-2C47,52.896,46.105,52,45,52L45,52z" fill="#37474F"/></g><g><path d="M48,17.5c0,0.275-0.225,0.5-0.5,0.5h-4.938c-0.275,0-0.5-0.225-0.5-0.5l0,0c0-0.275,0.225-0.5,0.5-0.5      H47.5C47.775,17,48,17.225,48,17.5L48,17.5z" fill="#37474F"/></g></g></g><g><g><path d="M39.187,41.049c-2.771,0-7.574-0.852-8.612-6.553l-0.375-2.058l1.265,1.665     c1.63,2.146,3.458,2.598,4.705,2.598c1.198,0,2.104-0.396,2.449-0.629c0.219-0.147,0.444-0.349,0.686-0.563     c0.844-0.746,1.934-1.699,3.511-1.454c1.198,0.188,1.84,0.826,2.168,1.328c0.402,0.616,0.565,1.396,0.448,2.144     c-0.388,2.484-3.233,3.188-4.095,3.344C41.044,40.924,40.251,41.049,39.187,41.049z M32.149,36.249     c1.412,3.088,4.496,3.8,7.037,3.8c1.01,0,1.763-0.124,1.97-0.162c0.699-0.126,3-0.682,3.286-2.515     c0.08-0.506-0.029-1.03-0.297-1.441c-0.312-0.477-0.825-0.783-1.485-0.887c-1.128-0.18-1.958,0.564-2.694,1.215     c-0.271,0.24-0.528,0.468-0.79,0.643c-0.545,0.368-1.661,0.8-3.007,0.8C35.073,37.701,33.604,37.414,32.149,36.249z" fill="#37474F"/></g></g><path d="M50.77,41.049c-1.064,0-1.857-0.125-2.149-0.178c-0.862-0.156-3.707-0.859-4.095-3.345   c-0.232-1.484,0.592-3.153,2.616-3.471c1.572-0.246,2.666,0.708,3.511,1.454c0.242,0.214,0.467,0.415,0.685,0.562   c0.348,0.234,1.253,0.63,2.451,0.63c0,0,0,0,0,0c1.246,0,3.073-0.451,4.703-2.598l1.265-1.665l-0.375,2.058   C58.344,40.197,53.541,41.049,50.77,41.049z M47.638,35.017c-0.11,0-0.225,0.009-0.342,0.027c-1.439,0.226-1.933,1.364-1.782,2.328   c0.286,1.833,2.588,2.389,3.286,2.515c0.208,0.038,0.96,0.162,1.97,0.162c2.541,0,5.625-0.712,7.036-3.8   c-1.454,1.165-2.923,1.452-4.018,1.452c0,0,0,0,0,0c-1.346,0-2.462-0.432-3.009-0.801c-0.26-0.174-0.517-0.401-0.789-0.642   C49.331,35.677,48.584,35.017,47.638,35.017z" fill="#37474F"/><g id="Hot_phone_1_"><g><g><path d="M26.177,39.884L17.293,31H7.5C5.57,31,4,29.43,4,27.5v-19C4,6.57,5.57,5,7.5,5h20      C29.43,5,31,6.57,31,8.5v19c0,1.93-1.57,3.5-3.5,3.5h-2.434L26.177,39.884z M7.5,6C6.121,6,5,7.121,5,8.5v19      C5,28.879,6.121,30,7.5,30h10.207l7.116,7.116L23.934,30H27.5c1.379,0,2.5-1.121,2.5-2.5v-19C30,7.121,28.879,6,27.5,6H7.5z" fill="#37474F"/></g></g></g><g><g><g><polygon fill="#37474F" points="10,19 10,23 9,23 9,19 8,19 8,28 9,28 9,24 10,24 10,28 11,28 11,19     "/></g><g><path d="M13.5,21c-0.825,0-1.5,0.675-1.5,1.5v4c0,0.825,0.675,1.5,1.5,1.5s1.5-0.675,1.5-1.5v-4      C15,21.675,14.325,21,13.5,21z M14,26.5c0,0.275-0.225,0.5-0.5,0.5S13,26.775,13,26.5v-4c0-0.275,0.225-0.5,0.5-0.5      s0.5,0.225,0.5,0.5V26.5z" fill="#37474F"/></g></g><g><g><polygon fill="#37474F" points="21,8 21,12 20,12 20,8 19,8 19,17 20,17 20,13 21,13 21,17 22,17 22,8     "/></g><g><path d="M24.5,10c-0.825,0-1.5,0.675-1.5,1.5v4c0,0.825,0.675,1.5,1.5,1.5s1.5-0.675,1.5-1.5v-4      C26,10.675,25.325,10,24.5,10z M25,15.5c0,0.275-0.225,0.5-0.5,0.5S24,15.775,24,15.5v-4c0-0.275,0.225-0.5,0.5-0.5      s0.5,0.225,0.5,0.5V15.5z" fill="#37474F"/></g></g><g><g><polygon fill="#37474F" points="10,8 10,12 9,12 9,8 8,8 8,17 9,17 9,13 10,13 10,17 11,17 11,8     "/></g><g><path d="M13.5,10c-0.825,0-1.5,0.675-1.5,1.5v4c0,0.825,0.675,1.5,1.5,1.5s1.5-0.675,1.5-1.5v-4      C15,10.675,14.325,10,13.5,10z M14,15.5c0,0.275-0.225,0.5-0.5,0.5S13,15.775,13,15.5v-4c0-0.275,0.225-0.5,0.5-0.5      s0.5,0.225,0.5,0.5V15.5z" fill="#37474F"/></g></g><g><g><rect fill="#37474F" height="7" width="1" x="17" y="19"/></g><g><rect fill="#37474F" height="7" width="1" x="19" y="19"/></g><g><rect fill="#37474F" height="7" width="1" x="21" y="19"/></g><g><rect fill="#37474F" height="1" width="1" x="21" y="27"/></g><g><rect fill="#37474F" height="1" width="1" x="19" y="27"/></g><g><rect fill="#37474F" height="1" width="1" x="17" y="27"/></g></g><g><rect fill="#37474F" height="1" width="2" x="27" y="12"/></g><g><rect fill="#37474F" height="1" width="2" x="16" y="12"/></g></g><g><path d="M53,31h-1c0-1.103-0.897-2-2-2s-2,0.897-2,2h-1c0-1.654,1.346-3,3-3S53,29.346,53,31z" fill="#37474F"/></g><g><path d="M43,31h-1c0-1.103-0.897-2-2-2s-2,0.897-2,2h-1c0-1.654,1.346-3,3-3S43,29.346,43,31z" fill="#37474F"/></g><g><rect clip-rule="evenodd" fill="#37474F" fill-rule="evenodd" height="1" width="22" x="34" y="20"/><rect clip-rule="evenodd" fill="#37474F" fill-rule="evenodd" height="1" width="22" x="34" y="50"/><g><path d="M56,55c0,1.654-1.346,3-3,3H37c-1.654,0-3-1.346-3-3V39.157c-0.35-0.234-0.689-0.493-1-0.807V55     c0,2.2,1.8,4,4,4h16c2.2,0,4-1.8,4-4V38.305c-0.311,0.319-0.649,0.585-1,0.823V55z" fill="#37474F"/><path d="M53,14H37c-2.2,0-4,1.8-4,4v18.237c0.334,0.218,0.668,0.399,1,0.536V18c0-1.654,1.346-3,3-3h16     c1.654,0,3,1.346,3,3v18.752c0.332-0.139,0.666-0.32,1-0.542V18C57,15.8,55.2,14,53,14z" fill="#37474F"/></g></g></g></svg>